<mxfile host="app.diagrams.net" agent="Mozilla/5.0 (Windows NT 10.0; Win64; x64) AppleWebKit/537.36 (KHTML, like Gecko) Chrome/133.0.0.0 Safari/537.36 Edg/133.0.0.0/8mqErPuL-62" version="26.0.16">
  <diagram name="Mental Health Diagnostics Architecture" id="RGe07_Nx6WIBWxhMNZ9U">
    <mxGraphModel dx="1431" dy="1928" grid="1" gridSize="10" guides="1" tooltips="1" connect="1" arrows="1" fold="1" page="1" pageScale="1" pageWidth="827" pageHeight="1169" math="0" shadow="0">
      <root>
        <mxCell id="0" />
        <mxCell id="1" parent="0" />
        <mxCell id="z-iSs9Tfkz1zE-1AyToB-1" value="&lt;span&gt;&lt;font style=&quot;font-size: 26px;&quot;&gt;Comprehensive Mental Health Diagnostics Architecture&lt;/font&gt;&lt;/span&gt;" style="rounded=1;whiteSpace=wrap;html=1;arcSize=5;fillColor=#f5f5f5;strokeColor=#666666;shadow=1;glass=0;labelPosition=center;verticalLabelPosition=middle;align=center;verticalAlign=top;spacing=15;spacingTop=-15;fontStyle=1" vertex="1" parent="1">
          <mxGeometry x="30" y="-30" width="900" height="610" as="geometry" />
        </mxCell>
        <mxCell id="z-iSs9Tfkz1zE-1AyToB-2" value="" style="rounded=1;whiteSpace=wrap;html=1;arcSize=7;fillColor=#f8f9fa;strokeColor=#4682B4;strokeWidth=2.5;shadow=1;glass=0;labelPosition=center;verticalLabelPosition=top;align=center;verticalAlign=bottom;spacing=15;spacingTop=-15;fontStyle=1" vertex="1" parent="1">
          <mxGeometry x="50" y="80" width="230" height="480" as="geometry" />
        </mxCell>
        <mxCell id="z-iSs9Tfkz1zE-1AyToB-3" value="&lt;span&gt;&lt;font color=&quot;#4682B4&quot; style=&quot;font-size: 18px;&quot;&gt;Multi-modal Data Sources&lt;/font&gt;&lt;/span&gt;" style="rounded=1;whiteSpace=wrap;html=1;arcSize=10;fillColor=#F0F8FF;strokeColor=#4682B4;strokeWidth=1.5;dashed=1;labelPosition=center;verticalLabelPosition=middle;align=center;verticalAlign=top;spacingTop=-5;fontStyle=1" vertex="1" parent="1">
          <mxGeometry x="60" y="105" width="210" height="130" as="geometry" />
        </mxCell>
        <mxCell id="z-iSs9Tfkz1zE-1AyToB-4" value="&lt;span&gt;&lt;font style=&quot;font-size: 14px;&quot;&gt;Clinical&lt;/font&gt;&lt;/span&gt;" style="shape=cylinder3;whiteSpace=wrap;html=1;boundedLbl=1;backgroundOutline=1;size=15;fillColor=#FFD700;strokeColor=#666666;shadow=1;fontStyle=1" vertex="1" parent="1">
          <mxGeometry x="70" y="155" width="80" height="70" as="geometry" />
        </mxCell>
        <mxCell id="z-iSs9Tfkz1zE-1AyToB-5" value="&lt;span&gt;&lt;font style=&quot;font-size: 14px;&quot;&gt;Behavioral&lt;/font&gt;&lt;/span&gt;" style="shape=cylinder3;whiteSpace=wrap;html=1;boundedLbl=1;backgroundOutline=1;size=15;fillColor=#FFD700;strokeColor=#666666;shadow=1;fontStyle=1" vertex="1" parent="1">
          <mxGeometry x="175" y="157.5" width="85" height="70" as="geometry" />
        </mxCell>
        <mxCell id="z-iSs9Tfkz1zE-1AyToB-6" value="&lt;span&gt;&lt;font color=&quot;#4682B4&quot; style=&quot;font-size: 18px;&quot;&gt;Data Processing Pipeline&lt;/font&gt;&lt;/span&gt;" style="rounded=1;whiteSpace=wrap;html=1;arcSize=10;fillColor=#F0F8FF;strokeColor=#4682B4;strokeWidth=1.5;labelPosition=center;verticalLabelPosition=middle;align=center;verticalAlign=top;spacingTop=-5;fontStyle=1" vertex="1" parent="1">
          <mxGeometry x="70" y="250" width="190" height="290" as="geometry" />
        </mxCell>
        <mxCell id="z-iSs9Tfkz1zE-1AyToB-7" value="&lt;span&gt;&lt;font color=&quot;white&quot; style=&quot;font-size: 16px;&quot;&gt;Data Preprocessing&lt;/font&gt;&lt;/span&gt;" style="rounded=1;whiteSpace=wrap;html=1;arcSize=10;fillColor=#212529;strokeColor=#666666;shadow=1;fontStyle=1" vertex="1" parent="1">
          <mxGeometry x="85" y="310" width="160" height="45" as="geometry" />
        </mxCell>
        <mxCell id="z-iSs9Tfkz1zE-1AyToB-8" value="&lt;span&gt;&lt;font color=&quot;white&quot; style=&quot;font-size: 16px;&quot;&gt;Feature Extraction&lt;/font&gt;&lt;/span&gt;" style="rounded=1;whiteSpace=wrap;html=1;arcSize=10;fillColor=#212529;strokeColor=#666666;shadow=1;fontStyle=1" vertex="1" parent="1">
          <mxGeometry x="85" y="370" width="160" height="45" as="geometry" />
        </mxCell>
        <mxCell id="z-iSs9Tfkz1zE-1AyToB-9" value="&lt;span&gt;&lt;font color=&quot;white&quot; style=&quot;font-size: 16px;&quot;&gt;Data Normalization&lt;/font&gt;&lt;/span&gt;" style="rounded=1;whiteSpace=wrap;html=1;arcSize=10;fillColor=#212529;strokeColor=#666666;shadow=1;fontStyle=1" vertex="1" parent="1">
          <mxGeometry x="85" y="430" width="160" height="45" as="geometry" />
        </mxCell>
        <mxCell id="z-iSs9Tfkz1zE-1AyToB-10" value="&lt;span&gt;&lt;font color=&quot;white&quot; style=&quot;font-size: 16px;&quot;&gt;Quality Assessment&lt;/font&gt;&lt;/span&gt;" style="rounded=1;whiteSpace=wrap;html=1;arcSize=10;fillColor=#212529;strokeColor=#666666;shadow=1;fontStyle=1" vertex="1" parent="1">
          <mxGeometry x="85" y="490" width="160" height="45" as="geometry" />
        </mxCell>
        <mxCell id="z-iSs9Tfkz1zE-1AyToB-11" value="" style="rounded=1;whiteSpace=wrap;html=1;arcSize=7;fillColor=#f8f9fa;strokeColor=#228B22;strokeWidth=2.5;shadow=1;glass=0;labelPosition=center;verticalLabelPosition=top;align=center;verticalAlign=bottom;spacing=15;spacingTop=-15;fontStyle=1" vertex="1" parent="1">
          <mxGeometry x="320" y="80" width="320" height="480" as="geometry" />
        </mxCell>
        <mxCell id="z-iSs9Tfkz1zE-1AyToB-12" value="&lt;span&gt;&lt;font color=&quot;#228B22&quot; style=&quot;font-size: 18px;&quot;&gt;Dataset Management&lt;/font&gt;&lt;/span&gt;" style="rounded=1;whiteSpace=wrap;html=1;arcSize=10;fillColor=#F0F8FF;strokeColor=#228B22;strokeWidth=1.5;dashed=1;labelPosition=center;verticalLabelPosition=middle;align=center;verticalAlign=top;spacingTop=-5;fontStyle=1" vertex="1" parent="1">
          <mxGeometry x="330" y="105" width="300" height="150" as="geometry" />
        </mxCell>
        <mxCell id="z-iSs9Tfkz1zE-1AyToB-13" value="&lt;span&gt;&lt;font style=&quot;font-size: 16px;&quot;&gt;Training Set&lt;/font&gt;&lt;/span&gt;" style="shape=cylinder3;whiteSpace=wrap;html=1;boundedLbl=1;backgroundOutline=1;size=15;fillColor=#FFD700;strokeColor=#666666;shadow=1;fontStyle=1" vertex="1" parent="1">
          <mxGeometry x="350" y="152.5" width="95" height="80" as="geometry" />
        </mxCell>
        <mxCell id="z-iSs9Tfkz1zE-1AyToB-14" value="&lt;span&gt;&lt;font style=&quot;font-size: 16px;&quot;&gt;Testing Set&lt;/font&gt;&lt;/span&gt;" style="shape=cylinder3;whiteSpace=wrap;html=1;boundedLbl=1;backgroundOutline=1;size=15;fillColor=#FFD700;strokeColor=#666666;shadow=1;fontStyle=1" vertex="1" parent="1">
          <mxGeometry x="495" y="155" width="105" height="75" as="geometry" />
        </mxCell>
        <mxCell id="z-iSs9Tfkz1zE-1AyToB-15" value="&lt;span&gt;&lt;font color=&quot;#228B22&quot; style=&quot;font-size: 18px;&quot;&gt;ML/DL Component Stack&lt;/font&gt;&lt;/span&gt;" style="rounded=1;whiteSpace=wrap;html=1;arcSize=10;fillColor=#F0F8FF;strokeColor=#228B22;strokeWidth=1.5;labelPosition=center;verticalLabelPosition=middle;align=center;verticalAlign=top;spacingTop=-5;fontStyle=1" vertex="1" parent="1">
          <mxGeometry x="330" y="285" width="300" height="255" as="geometry" />
        </mxCell>
        <mxCell id="z-iSs9Tfkz1zE-1AyToB-16" value="&lt;span&gt;&lt;font color=&quot;white&quot; style=&quot;font-size: 16px;&quot;&gt;Hyperparameter Optimization&lt;/font&gt;&lt;/span&gt;" style="rounded=1;whiteSpace=wrap;html=1;arcSize=10;fillColor=#212529;strokeColor=#666666;shadow=1;fontStyle=1" vertex="1" parent="1">
          <mxGeometry x="350" y="320" width="260" height="50" as="geometry" />
        </mxCell>
        <mxCell id="z-iSs9Tfkz1zE-1AyToB-17" value="&lt;span&gt;&lt;font color=&quot;white&quot; style=&quot;font-size: 16px;&quot;&gt;Deep Neural Networks&lt;/font&gt;&lt;/span&gt;" style="rounded=1;whiteSpace=wrap;html=1;arcSize=10;fillColor=#212529;strokeColor=#666666;shadow=1;fontStyle=1" vertex="1" parent="1">
          <mxGeometry x="350" y="380" width="260" height="50" as="geometry" />
        </mxCell>
        <mxCell id="z-iSs9Tfkz1zE-1AyToB-18" value="&lt;span&gt;&lt;font color=&quot;white&quot; style=&quot;font-size: 16px;&quot;&gt;Vision Transformers&lt;/font&gt;&lt;/span&gt;" style="rounded=1;whiteSpace=wrap;html=1;arcSize=10;fillColor=#212529;strokeColor=#666666;shadow=1;fontStyle=1" vertex="1" parent="1">
          <mxGeometry x="350" y="440" width="125" height="50" as="geometry" />
        </mxCell>
        <mxCell id="z-iSs9Tfkz1zE-1AyToB-19" value="&lt;span&gt;&lt;font color=&quot;white&quot; style=&quot;font-size: 16px;&quot;&gt;Hybrid Models&lt;/font&gt;&lt;/span&gt;" style="rounded=1;whiteSpace=wrap;html=1;arcSize=10;fillColor=#212529;strokeColor=#666666;shadow=1;fontStyle=1" vertex="1" parent="1">
          <mxGeometry x="485" y="440" width="125" height="50" as="geometry" />
        </mxCell>
        <mxCell id="z-iSs9Tfkz1zE-1AyToB-20" value="&lt;span&gt;&lt;font style=&quot;font-size: 14px;&quot;&gt;Cross-validation &amp;amp; Model Evaluation&lt;/font&gt;&lt;/span&gt;" style="rounded=1;whiteSpace=wrap;html=1;arcSize=10;fillColor=#f0f0f0;strokeColor=#666666;shadow=1;fontStyle=1" vertex="1" parent="1">
          <mxGeometry x="350" y="500" width="260" height="30" as="geometry" />
        </mxCell>
        <mxCell id="z-iSs9Tfkz1zE-1AyToB-21" value="" style="rounded=1;whiteSpace=wrap;html=1;arcSize=7;fillColor=#f8f9fa;strokeColor=#800080;strokeWidth=2.5;shadow=1;glass=0;labelPosition=center;verticalLabelPosition=top;align=center;verticalAlign=bottom;spacing=15;spacingTop=-15;fontStyle=1" vertex="1" parent="1">
          <mxGeometry x="680" y="80" width="230" height="480" as="geometry" />
        </mxCell>
        <mxCell id="z-iSs9Tfkz1zE-1AyToB-22" value="" style="rounded=1;whiteSpace=wrap;html=1;arcSize=10;fillColor=#87CEEB;strokeColor=#666666;shadow=1;fontStyle=1" vertex="1" parent="1">
          <mxGeometry x="700" y="117.5" width="190" height="100" as="geometry" />
        </mxCell>
        <mxCell id="z-iSs9Tfkz1zE-1AyToB-23" value="&lt;span&gt;&lt;font style=&quot;font-size: 18px;&quot;&gt;Stress Classification&lt;/font&gt;&lt;/span&gt;" style="text;html=1;strokeColor=none;fillColor=none;align=center;verticalAlign=middle;whiteSpace=wrap;rounded=0;fontStyle=1" vertex="1" parent="1">
          <mxGeometry x="700" y="127.5" width="190" height="20" as="geometry" />
        </mxCell>
        <mxCell id="z-iSs9Tfkz1zE-1AyToB-24" value="" style="endArrow=none;html=1;rounded=0;entryX=1;entryY=0.35;entryDx=0;entryDy=0;entryPerimeter=0;exitX=0;exitY=0.35;exitDx=0;exitDy=0;exitPerimeter=0;fontStyle=1" edge="1" parent="1" source="z-iSs9Tfkz1zE-1AyToB-22" target="z-iSs9Tfkz1zE-1AyToB-22">
          <mxGeometry width="50" height="50" relative="1" as="geometry">
            <mxPoint x="710" y="167.5" as="sourcePoint" />
            <mxPoint x="760" y="117.5" as="targetPoint" />
          </mxGeometry>
        </mxCell>
        <mxCell id="z-iSs9Tfkz1zE-1AyToB-25" value="&lt;span&gt;&lt;font style=&quot;font-size: 16px;&quot;&gt;• Acute Assessment&lt;/font&gt;&lt;/span&gt;" style="text;html=1;strokeColor=none;fillColor=none;align=center;verticalAlign=middle;whiteSpace=wrap;rounded=0;fontStyle=1" vertex="1" parent="1">
          <mxGeometry x="700" y="157.5" width="190" height="30" as="geometry" />
        </mxCell>
        <mxCell id="z-iSs9Tfkz1zE-1AyToB-26" value="&lt;span&gt;&lt;font style=&quot;font-size: 16px;&quot;&gt;• Chronic Monitoring&lt;/font&gt;&lt;/span&gt;" style="text;html=1;strokeColor=none;fillColor=none;align=center;verticalAlign=middle;whiteSpace=wrap;rounded=0;fontStyle=1" vertex="1" parent="1">
          <mxGeometry x="700" y="182.5" width="190" height="30" as="geometry" />
        </mxCell>
        <mxCell id="z-iSs9Tfkz1zE-1AyToB-27" value="" style="rounded=1;whiteSpace=wrap;html=1;arcSize=10;fillColor=#87CEEB;strokeColor=#666666;shadow=1;fontStyle=1" vertex="1" parent="1">
          <mxGeometry x="700" y="232.5" width="190" height="100" as="geometry" />
        </mxCell>
        <mxCell id="z-iSs9Tfkz1zE-1AyToB-28" value="&lt;span&gt;&lt;font style=&quot;font-size: 18px;&quot;&gt;Dementia Detection&lt;/font&gt;&lt;/span&gt;" style="text;html=1;strokeColor=none;fillColor=none;align=center;verticalAlign=middle;whiteSpace=wrap;rounded=0;fontStyle=1" vertex="1" parent="1">
          <mxGeometry x="700" y="242.5" width="190" height="20" as="geometry" />
        </mxCell>
        <mxCell id="z-iSs9Tfkz1zE-1AyToB-29" value="" style="endArrow=none;html=1;rounded=0;entryX=1;entryY=0.35;entryDx=0;entryDy=0;entryPerimeter=0;exitX=0;exitY=0.35;exitDx=0;exitDy=0;exitPerimeter=0;fontStyle=1" edge="1" parent="1" source="z-iSs9Tfkz1zE-1AyToB-27" target="z-iSs9Tfkz1zE-1AyToB-27">
          <mxGeometry width="50" height="50" relative="1" as="geometry">
            <mxPoint x="710" y="282.5" as="sourcePoint" />
            <mxPoint x="760" y="232.5" as="targetPoint" />
          </mxGeometry>
        </mxCell>
        <mxCell id="z-iSs9Tfkz1zE-1AyToB-30" value="&lt;span&gt;&lt;font style=&quot;font-size: 16px;&quot;&gt;• Early Stage Detection&lt;/font&gt;&lt;/span&gt;" style="text;html=1;strokeColor=none;fillColor=none;align=center;verticalAlign=middle;whiteSpace=wrap;rounded=0;fontStyle=1" vertex="1" parent="1">
          <mxGeometry x="700" y="272.5" width="190" height="30" as="geometry" />
        </mxCell>
        <mxCell id="z-iSs9Tfkz1zE-1AyToB-31" value="&lt;span&gt;&lt;font style=&quot;font-size: 16px;&quot;&gt;• Progression Analysis&lt;/font&gt;&lt;/span&gt;" style="text;html=1;strokeColor=none;fillColor=none;align=center;verticalAlign=middle;whiteSpace=wrap;rounded=0;fontStyle=1" vertex="1" parent="1">
          <mxGeometry x="700" y="297.5" width="190" height="30" as="geometry" />
        </mxCell>
        <mxCell id="z-iSs9Tfkz1zE-1AyToB-32" value="" style="rounded=1;whiteSpace=wrap;html=1;arcSize=10;fillColor=#87CEEB;strokeColor=#666666;shadow=1;fontStyle=1" vertex="1" parent="1">
          <mxGeometry x="700" y="347.5" width="190" height="100" as="geometry" />
        </mxCell>
        <mxCell id="z-iSs9Tfkz1zE-1AyToB-33" value="&lt;span&gt;&lt;font style=&quot;font-size: 18px;&quot;&gt;Depression Analysis&lt;/font&gt;&lt;/span&gt;" style="text;html=1;strokeColor=none;fillColor=none;align=center;verticalAlign=middle;whiteSpace=wrap;rounded=0;fontStyle=1" vertex="1" parent="1">
          <mxGeometry x="700" y="357.5" width="190" height="20" as="geometry" />
        </mxCell>
        <mxCell id="z-iSs9Tfkz1zE-1AyToB-34" value="" style="endArrow=none;html=1;rounded=0;entryX=1;entryY=0.35;entryDx=0;entryDy=0;entryPerimeter=0;exitX=0;exitY=0.35;exitDx=0;exitDy=0;exitPerimeter=0;fontStyle=1" edge="1" parent="1" source="z-iSs9Tfkz1zE-1AyToB-32" target="z-iSs9Tfkz1zE-1AyToB-32">
          <mxGeometry width="50" height="50" relative="1" as="geometry">
            <mxPoint x="710" y="397.5" as="sourcePoint" />
            <mxPoint x="760" y="347.5" as="targetPoint" />
          </mxGeometry>
        </mxCell>
        <mxCell id="z-iSs9Tfkz1zE-1AyToB-35" value="&lt;span&gt;&lt;font style=&quot;font-size: 16px;&quot;&gt;• Symptom Classification&lt;/font&gt;&lt;/span&gt;" style="text;html=1;strokeColor=none;fillColor=none;align=center;verticalAlign=middle;whiteSpace=wrap;rounded=0;fontStyle=1" vertex="1" parent="1">
          <mxGeometry x="700" y="387.5" width="190" height="30" as="geometry" />
        </mxCell>
        <mxCell id="z-iSs9Tfkz1zE-1AyToB-36" value="&lt;span&gt;&lt;font style=&quot;font-size: 16px;&quot;&gt;• Severity Assessment&lt;/font&gt;&lt;/span&gt;" style="text;html=1;strokeColor=none;fillColor=none;align=center;verticalAlign=middle;whiteSpace=wrap;rounded=0;fontStyle=1" vertex="1" parent="1">
          <mxGeometry x="700" y="412.5" width="190" height="30" as="geometry" />
        </mxCell>
        <mxCell id="z-iSs9Tfkz1zE-1AyToB-37" value="&lt;span&gt;&lt;font color=&quot;white&quot; style=&quot;font-size: 18px;&quot;&gt;Clinical Decision&lt;br&gt;Support System&lt;/font&gt;&lt;/span&gt;" style="rounded=1;whiteSpace=wrap;html=1;arcSize=10;fillColor=#212529;strokeColor=#666666;shadow=1;fontStyle=1" vertex="1" parent="1">
          <mxGeometry x="700" y="462.5" width="190" height="60" as="geometry" />
        </mxCell>
        <mxCell id="z-iSs9Tfkz1zE-1AyToB-38" value="" style="endArrow=classic;html=1;rounded=0;strokeWidth=2.5;exitX=1;exitY=0.3;exitDx=0;exitDy=0;entryX=0;entryY=0.3;entryDx=0;entryDy=0;fontStyle=1" edge="1" parent="1" source="z-iSs9Tfkz1zE-1AyToB-2" target="z-iSs9Tfkz1zE-1AyToB-11">
          <mxGeometry width="50" height="50" relative="1" as="geometry">
            <mxPoint x="290" y="190" as="sourcePoint" />
            <mxPoint x="340" y="140" as="targetPoint" />
          </mxGeometry>
        </mxCell>
        <mxCell id="z-iSs9Tfkz1zE-1AyToB-39" value="" style="endArrow=classic;html=1;rounded=0;strokeWidth=2.5;exitX=1;exitY=0.7;exitDx=0;exitDy=0;entryX=0;entryY=0.7;entryDx=0;entryDy=0;fontStyle=1" edge="1" parent="1" source="z-iSs9Tfkz1zE-1AyToB-2" target="z-iSs9Tfkz1zE-1AyToB-11">
          <mxGeometry width="50" height="50" relative="1" as="geometry">
            <mxPoint x="290" y="400" as="sourcePoint" />
            <mxPoint x="340" y="350" as="targetPoint" />
          </mxGeometry>
        </mxCell>
        <mxCell id="z-iSs9Tfkz1zE-1AyToB-40" value="" style="endArrow=classic;html=1;rounded=0;strokeWidth=2.5;exitX=1;exitY=0.25;exitDx=0;exitDy=0;entryX=0;entryY=0.25;entryDx=0;entryDy=0;fontStyle=1" edge="1" parent="1" source="z-iSs9Tfkz1zE-1AyToB-11" target="z-iSs9Tfkz1zE-1AyToB-21">
          <mxGeometry width="50" height="50" relative="1" as="geometry">
            <mxPoint x="650" y="190" as="sourcePoint" />
            <mxPoint x="700" y="140" as="targetPoint" />
          </mxGeometry>
        </mxCell>
        <mxCell id="z-iSs9Tfkz1zE-1AyToB-41" value="" style="endArrow=classic;html=1;rounded=0;strokeWidth=2.5;exitX=1;exitY=0.5;exitDx=0;exitDy=0;entryX=0;entryY=0.5;entryDx=0;entryDy=0;fontStyle=1" edge="1" parent="1" source="z-iSs9Tfkz1zE-1AyToB-11" target="z-iSs9Tfkz1zE-1AyToB-21">
          <mxGeometry width="50" height="50" relative="1" as="geometry">
            <mxPoint x="650" y="320" as="sourcePoint" />
            <mxPoint x="700" y="270" as="targetPoint" />
          </mxGeometry>
        </mxCell>
        <mxCell id="z-iSs9Tfkz1zE-1AyToB-42" value="" style="endArrow=classic;html=1;rounded=0;strokeWidth=2.5;exitX=1;exitY=0.75;exitDx=0;exitDy=0;entryX=0;entryY=0.75;entryDx=0;entryDy=0;fontStyle=1" edge="1" parent="1" source="z-iSs9Tfkz1zE-1AyToB-11" target="z-iSs9Tfkz1zE-1AyToB-21">
          <mxGeometry width="50" height="50" relative="1" as="geometry">
            <mxPoint x="650" y="450" as="sourcePoint" />
            <mxPoint x="700" y="400" as="targetPoint" />
          </mxGeometry>
        </mxCell>
        <mxCell id="z-iSs9Tfkz1zE-1AyToB-49" value="&lt;span style=&quot;forced-color-adjust: none; color: rgb(0, 0, 0); font-family: Helvetica; font-size: 12px; font-style: normal; font-variant-ligatures: normal; font-variant-caps: normal; letter-spacing: normal; orphans: 2; text-align: center; text-indent: 0px; text-transform: none; widows: 2; word-spacing: 0px; -webkit-text-stroke-width: 0px; white-space: normal; background-color: rgb(251, 251, 251); text-decoration-thickness: initial; text-decoration-style: initial; text-decoration-color: initial;&quot;&gt;&lt;font color=&quot;#4682B4&quot; style=&quot;forced-color-adjust: none; font-size: 22px;&quot;&gt;Data Acquisition Layer&lt;/font&gt;&lt;/span&gt;" style="text;html=1;align=center;verticalAlign=middle;whiteSpace=wrap;rounded=0;fontStyle=1" vertex="1" parent="1">
          <mxGeometry x="50" y="12.5" width="230" height="60" as="geometry" />
        </mxCell>
        <mxCell id="z-iSs9Tfkz1zE-1AyToB-51" value="&lt;span&gt;&lt;font style=&quot;font-size: 22px; color: light-dark(rgb(34, 139, 34), rgb(79, 169, 79));&quot;&gt;Computational Framework Layer&lt;/font&gt;&lt;/span&gt;" style="text;html=1;align=center;verticalAlign=middle;whiteSpace=wrap;rounded=0;fontStyle=1" vertex="1" parent="1">
          <mxGeometry x="320" y="16" width="320" height="60" as="geometry" />
        </mxCell>
        <mxCell id="z-iSs9Tfkz1zE-1AyToB-53" value="&lt;span&gt;&lt;font style=&quot;font-size: 22px; color: light-dark(rgb(128, 0, 128), rgb(255, 174, 255));&quot;&gt;Clinical Application Layer&lt;/font&gt;&lt;/span&gt;" style="text;html=1;align=center;verticalAlign=middle;whiteSpace=wrap;rounded=0;fontStyle=1" vertex="1" parent="1">
          <mxGeometry x="680" y="12.5" width="230" height="60" as="geometry" />
        </mxCell>
      </root>
    </mxGraphModel>
  </diagram>
</mxfile>
